<?xml version="1.0" encoding="UTF-8" standalone="no"?>
<!DOCTYPE svg PUBLIC "-//W3C//DTD SVG 1.1//EN" "http://www.w3.org/Graphics/SVG/1.1/DTD/svg11.dtd">
<svg width="100%" height="100%" viewBox="0 0 955 470" version="1.1" xmlns="http://www.w3.org/2000/svg" xmlns:xlink="http://www.w3.org/1999/xlink" xml:space="preserve" xmlns:serif="http://www.serif.com/" style="fill-rule:evenodd;clip-rule:evenodd;stroke-linejoin:round;stroke-miterlimit:2;">
    <g transform="matrix(1,0,0,1,36.0502,-0.99958)">
        <g transform="matrix(0.444348,0,0,0.444348,41.1431,-22.8875)">
            <path d="M606.676,407.649C589.479,402.829 572.433,398.903 555.895,395.881L555.895,400.325C572.051,403.303 588.696,407.15 605.496,411.859C658.981,426.85 707.378,448.697 738.278,471.798L740.896,468.296C709.581,444.885 660.659,422.78 606.676,407.649Z" style="fill:rgb(204,204,204);fill-rule:nonzero;"/>
        </g>
        <g transform="matrix(0.444348,0,0,0.444348,41.1431,-22.8875)">
            <path d="M735.07,489.591C735.022,409.461 669.072,343.552 588.942,343.552C577.818,343.552 566.731,344.822 555.895,347.337L555.895,631.834C621.991,647.22 690.526,614.628 720.305,553.648C721.059,552.111 721.783,550.561 722.479,548.996C730.807,530.301 735.098,510.057 735.071,489.591L735.07,489.591Z" style="fill:rgb(96,168,204);fill-rule:nonzero;"/>
        </g>
        <g transform="matrix(0.444348,0,0,0.444348,146.764,59.9833)">
            <circle cx="355.204" cy="129.05" r="1.673" style="fill:rgb(242,242,242);"/>
        </g>
        <g transform="matrix(0.444348,0,0,0.444348,146.764,59.9833)">
            <circle cx="468.435" cy="139.091" r="3.79" style="fill:rgb(204,204,204);"/>
        </g>
        <g transform="matrix(0.444348,0,0,0.444348,146.764,59.9833)">
            <circle cx="554.742" cy="198.111" r="2.64" style="fill:rgb(204,204,204);"/>
        </g>
        <g transform="matrix(0.444348,0,0,0.444348,146.764,59.9833)">
            <circle cx="545.501" cy="283.919" r="2.64" style="fill:rgb(204,204,204);"/>
        </g>
        <g transform="matrix(0.444348,0,0,0.444348,146.764,59.9833)">
            <path d="M473.192,460.867L468.78,460.867L468.78,456.458L466.415,456.458L466.415,460.867L462.006,460.867L462.006,463.233L466.415,463.233L466.415,467.643L468.78,467.643L468.78,463.233L473.192,463.233L473.192,460.867Z" style="fill:rgb(204,204,204);fill-rule:nonzero;"/>
        </g>
        <g transform="matrix(0.444348,0,0,0.444348,146.764,59.9833)">
            <path d="M574.971,438.296L571.675,438.296L571.675,435L569.904,435L569.904,438.296L566.608,438.296L566.608,440.066L569.904,440.066L569.904,443.362L571.675,443.362L571.675,440.066L574.971,440.066L574.971,438.296Z" style="fill:rgb(204,204,204);fill-rule:nonzero;"/>
        </g>
        <g transform="matrix(0.444348,0,0,0.444348,146.764,59.9833)">
            <circle cx="353.531" cy="188.744" r="12.271" style="fill-opacity:0.1;"/>
        </g>
        <g transform="matrix(0.444348,0,0,0.444348,146.764,59.9833)">
            <circle cx="353.531" cy="297.513" r="12.271" style="fill-opacity:0.1;"/>
        </g>
        <g transform="matrix(0.444348,0,0,0.444348,146.764,59.9833)">
            <circle cx="419.35" cy="231.694" r="12.271" style="fill-opacity:0.1;"/>
        </g>
        <g transform="matrix(0.444348,0,0,0.444348,146.764,59.9833)">
            <circle cx="460.069" cy="314.804" r="12.271" style="fill-opacity:0.1;"/>
        </g>
        <g transform="matrix(0.444348,0,0,0.444348,41.1431,-22.8875)">
            <path d="M768.461,495.737C762.699,486.895 753.425,477.662 740.896,468.296L738.278,471.798C762.625,489.999 773.966,507.397 770.213,520.787C768.123,528.244 761.498,534.301 750.522,538.789C739.518,543.288 724.752,545.981 706.632,546.793C702.783,546.966 698.832,547.052 694.782,547.052C659.329,547.051 616.582,540.487 572.877,528.237C567.146,526.631 561.486,524.95 555.895,523.196L555.895,527.775C561.102,529.392 566.369,530.95 571.697,532.447C615.784,544.804 658.944,551.424 694.803,551.423C698.909,551.423 702.924,551.336 706.828,551.161C745.628,549.422 769.634,539.054 774.423,521.967C776.645,514.041 774.639,505.216 768.461,495.737Z" style="fill:rgb(204,204,204);fill-rule:nonzero;"/>
        </g>
        <g transform="matrix(0.444348,0,0,0.444348,41.1431,-22.8875)">
            <path d="M706.634,550.29C702.785,550.462 698.834,550.548 694.781,550.548C659.331,550.548 616.58,543.985 572.876,531.734C567.145,530.128 561.485,528.448 555.895,526.694L555.895,531.273C561.101,532.89 566.368,534.448 571.695,535.945C615.784,548.3 658.942,554.92 694.803,554.92C698.908,554.92 702.926,554.832 706.831,554.657C711.547,554.448 716.038,554.111 720.305,553.648C721.059,552.111 721.784,550.561 722.479,548.996C717.521,549.605 712.239,550.036 706.634,550.29Z" style="fill-opacity:0.1;fill-rule:nonzero;"/>
        </g>
        <g transform="matrix(0.444348,0,0,0.444348,146.764,59.9833)">
            <circle cx="419.301" cy="180.5" r="16" style="fill:white;"/>
        </g>
        <g transform="matrix(0.444348,0,0,0.444348,41.1431,-22.8875)">
            <path d="M657.049,343.45C644.503,343.45 634.179,353.774 634.179,366.32C634.179,378.95 657.049,420.425 657.049,420.425C657.049,420.425 679.918,378.95 679.918,366.32C679.918,353.774 669.594,343.45 657.049,343.45ZM657.049,377.475C651.235,377.475 646.451,372.691 646.451,366.877C646.451,361.064 651.235,356.279 657.049,356.279C662.862,356.279 667.647,361.064 667.647,366.877C667.647,372.691 662.862,377.475 657.049,377.475Z" style="fill:rgb(96,94,132);fill-rule:nonzero;"/>
        </g>
        <g transform="matrix(0.444348,0,0,0.444348,146.764,59.9833)">
            <circle cx="353.301" cy="238.5" r="16" style="fill:white;"/>
        </g>
        <g transform="matrix(0.444348,0,0,0.444348,41.1431,-22.8875)">
            <path d="M591.049,401.45C578.503,401.45 568.179,411.774 568.179,424.32C568.179,436.95 591.049,478.425 591.049,478.425C591.049,478.425 613.918,436.95 613.918,424.32C613.918,411.774 603.594,401.45 591.049,401.45ZM591.049,435.475C585.235,435.475 580.451,430.691 580.451,424.877C580.451,419.064 585.235,414.279 591.049,414.279C596.862,414.279 601.647,419.064 601.647,424.877C601.647,430.691 596.862,435.475 591.049,435.475Z" style="fill:rgb(96,94,132);fill-rule:nonzero;"/>
        </g>
        <g transform="matrix(0.444348,0,0,0.444348,146.764,59.9833)">
            <circle cx="353.301" cy="135.5" r="16" style="fill:white;"/>
        </g>
        <g transform="matrix(0.444348,0,0,0.444348,41.1431,-22.8875)">
            <path d="M591.049,298.45C578.503,298.45 568.179,308.774 568.179,321.32C568.179,333.95 591.049,375.425 591.049,375.425C591.049,375.425 613.918,333.95 613.918,321.32C613.918,308.774 603.594,298.45 591.049,298.45ZM591.049,332.475C585.235,332.475 580.451,327.691 580.451,321.877C580.451,316.064 585.235,311.279 591.049,311.279C596.862,311.279 601.647,316.064 601.647,321.877C601.647,327.691 596.862,332.475 591.049,332.475Z" style="fill:rgb(204,204,204);fill-rule:nonzero;"/>
        </g>
        <g transform="matrix(0.444348,0,0,0.444348,146.764,59.9833)">
            <circle cx="460.301" cy="259.5" r="16" style="fill:white;"/>
        </g>
        <g transform="matrix(0.444348,0,0,0.444348,41.1431,-22.8875)">
            <path d="M698.049,422.45C685.503,422.45 675.179,432.774 675.179,445.32C675.179,457.95 698.049,499.425 698.049,499.425C698.049,499.425 720.918,457.95 720.918,445.32C720.918,432.774 710.594,422.45 698.049,422.45ZM698.049,456.475C692.235,456.475 687.451,451.691 687.451,445.877C687.451,440.064 692.235,435.279 698.049,435.279C703.862,435.279 708.647,440.064 708.647,445.877C708.647,451.691 703.862,456.475 698.049,456.475Z" style="fill:rgb(204,204,204);fill-rule:nonzero;"/>
        </g>
    </g>
    <g transform="matrix(1,0,0,1,-122.5,-213.206)">
        <path d="M310.73,356.919C310.73,358.545 310.678,360.165 310.574,361.765C309.978,371.013 307.641,380.066 303.686,388.446C303.653,388.518 303.621,388.59 303.588,388.654C303.406,389.045 303.218,389.429 303.022,389.812C290.806,414.36 265.909,430.184 238.497,430.823L239.232,472.869L248.761,467.847L250.466,471.087L239.304,476.96L240.598,551.125L240.664,555.028L233.359,555.028L233.43,551.125L235.648,430.83C215.938,430.549 197.143,422.372 183.501,408.142C183.033,407.661 182.578,407.167 182.123,406.672C182.103,406.653 182.09,406.633 182.077,406.62C176.445,400.482 171.891,393.435 168.606,385.78C168.678,385.864 168.756,385.936 168.827,386.02C153.502,350.193 168.996,308.086 203.887,290.736C204.14,290.612 204.407,290.488 204.661,290.358C239.141,273.751 281.105,286.492 300.531,319.466C300.98,320.22 301.416,320.995 301.832,321.769C307.685,332.558 310.745,344.644 310.73,356.919Z" style="fill:rgb(75,162,91);fill-rule:nonzero;"/>
    </g>
    <g transform="matrix(1.16516,0,0,1.16516,567.188,-304.875)">
        <path d="M310.73,356.919C310.73,358.545 310.678,360.165 310.574,361.765C309.978,371.013 307.641,380.066 303.686,388.446C303.653,388.518 303.621,388.59 303.588,388.654C303.406,389.045 303.218,389.429 303.022,389.812C290.806,414.36 265.909,430.184 238.497,430.823L239.232,472.869L248.761,467.847L250.466,471.087L239.304,476.96L240.598,551.125L240.664,555.028L233.359,555.028L233.43,551.125L235.648,430.83C215.938,430.549 197.143,422.372 183.501,408.142C183.033,407.661 182.578,407.167 182.123,406.672C182.103,406.653 182.09,406.633 182.077,406.62C176.445,400.482 171.891,393.435 168.606,385.78C168.678,385.864 168.756,385.936 168.827,386.02C153.502,350.193 168.996,308.086 203.887,290.736C204.14,290.612 204.407,290.488 204.661,290.358C239.141,273.751 281.105,286.492 300.531,319.466C300.98,320.22 301.416,320.995 301.832,321.769C307.685,332.558 310.745,344.644 310.73,356.919Z" style="fill:rgb(75,162,91);fill-rule:nonzero;"/>
    </g>
    <g transform="matrix(1,0,0,1,19.0732,0)">
        <path d="M444.098,287.822L444.098,296.822L476.098,296.822L476.098,341.822L489.098,341.822L489.098,296.822L619.098,296.822L619.098,341.822L632.098,341.822L632.098,296.822L664.098,296.822L664.098,287.822L444.098,287.822Z" style="fill:rgb(96,168,204);fill-rule:nonzero;"/>
    </g>
    <g transform="matrix(1,0,0,1,34.1541,-8.99958)">
        <path d="M420.098,96.822L274.098,96.822L274.098,296.822L420.098,296.822L420.098,96.822ZM406.228,115.822L287.968,115.822L287.968,277.822L406.228,277.822L406.228,115.822Z" style="fill:rgb(96,168,204);"/>
    </g>
    <g transform="matrix(1,0,0,1,0,-2)">
        <rect x="550.098" y="80.822" width="12" height="207" style="fill:rgb(96,168,204);"/>
    </g>
    <g transform="matrix(1,0,0,64.8832,-122.5,-35670.1)">
        <path d="M1076.5,557.028L123.5,557.028C122.951,557.028 122.5,556.576 122.5,556.028C122.5,555.479 122.951,555.028 123.5,555.028L1076.5,555.028C1077.05,555.028 1077.5,555.479 1077.5,556.028C1077.5,556.576 1077.05,557.028 1076.5,557.028Z" style="fill:rgb(204,204,204);fill-rule:nonzero;"/>
    </g>
    <g transform="matrix(-0.355306,0,0,0.355306,585.951,137.625)">
        <path d="M674.09,540.015L664.596,540.014L660.08,503.396L674.091,503.397L674.09,540.015Z" style="fill:rgb(255,183,183);fill-rule:nonzero;"/>
    </g>
    <g transform="matrix(-0.355306,0,0,0.355306,621.481,79.8873)">
        <path d="M774.089,699.42L764.219,699.41L757.819,699.41C757.817,699.41 757.816,699.41 757.814,699.41C751.278,699.41 745.899,704.789 745.899,711.325L745.899,711.72L776.509,711.72L776.509,699.42L774.089,699.42Z" style="fill:rgb(47,46,65);fill-rule:nonzero;"/>
    </g>
    <g transform="matrix(-0.355306,0,0,0.355306,585.951,137.625)">
        <path d="M705.525,544.579L696.033,544.384L692.266,507.682L706.275,507.969L705.525,544.579Z" style="fill:rgb(255,183,183);fill-rule:nonzero;"/>
    </g>
    <g transform="matrix(-0.355306,0,0,0.355306,621.481,79.8873)">
        <path d="M805.589,703.98L795.709,703.78L789.319,703.65C789.23,703.648 789.141,703.647 789.052,703.647C782.614,703.647 777.285,708.873 777.159,715.31L777.149,715.7L807.759,716.33L807.809,713.8L808.009,704.03L805.589,703.98Z" style="fill:rgb(47,46,65);fill-rule:nonzero;"/>
    </g>
    <g transform="matrix(0.834596,-0.550863,0.550863,0.834596,-356.086,5.84189)">
        <rect x="247.589" y="455.459" width="0.755" height="86.067"/>
    </g>
    <g transform="matrix(1,0,0,1,0,2)">
        <path d="M73.66,335.241L78.286,335.241L80.487,317.396L73.659,317.396L73.66,335.241Z" style="fill:rgb(160,97,106);fill-rule:nonzero;"/>
    </g>
    <g transform="matrix(1.01953,0,0,1.01953,4.78445,-1.77063)">
        <path d="M290.225,333.962C293.238,335.432 296.547,336.196 299.9,336.196C312.082,336.196 321.973,326.306 321.973,314.124C321.973,306.65 318.19,299.683 311.922,295.613L308.916,300.241C313.618,303.294 316.454,308.518 316.454,314.124C316.454,323.26 309.037,330.678 299.9,330.678C297.386,330.678 294.904,330.105 292.643,329.003L290.225,333.962Z" style="fill:rgb(96,94,132);"/>
    </g>
    <g transform="matrix(1,0,0,1,-122.5,-213.206)">
        <path d="M194.98,548.936L204.091,548.936C207.276,548.936 209.897,551.557 209.898,554.742L209.898,554.931L194.98,554.931L194.98,548.936Z" style="fill-rule:nonzero;"/>
    </g>
    <g transform="matrix(1,0,0,1,0,2)">
        <path d="M43.424,330.813L47.772,332.395L55.943,316.38L49.527,314.044L43.424,330.813Z" style="fill:rgb(160,97,106);fill-rule:nonzero;"/>
    </g>
    <g transform="matrix(1,0,0,1,-122.5,-213.206)">
        <path d="M165.332,544.196L173.893,547.312L173.894,547.312C176.887,548.402 178.453,551.761 177.364,554.754L177.299,554.931L163.282,549.829L165.332,544.196Z" style="fill-rule:nonzero;"/>
    </g>
    <g transform="matrix(1,0,0,1,-122.5,-213.206)">
        <path d="M194.841,428.621L204.652,431.64L212.577,444.848L209.558,460.32L208.049,473.905L208.049,534.282C208.049,534.282 196.437,537.301 191.488,534.282L193.332,499.188L180.879,536.546L166.916,531.263L182.766,478.81C182.511,474.932 183.16,471.046 184.662,467.461C186.021,464.269 188.41,461.622 191.445,459.942L191.445,456.923L188.426,437.678L194.841,428.621Z" style="fill:rgb(255,221,29);fill-rule:nonzero;"/>
    </g>
    <g transform="matrix(1,0,0,1,0,2)">
        <circle cx="79.778" cy="202.623" r="9.268" style="fill:rgb(160,97,106);"/>
    </g>
    <g transform="matrix(1,0,0,1,-122.5,-213.206)">
        <path d="M211.225,415.413C208.66,414.901 206.036,416.082 204.717,418.341C204.399,417.168 202.507,417.229 201.807,418.222C201.236,419.309 201.122,420.58 201.489,421.751C201.857,422.918 201.834,424.173 201.422,425.325C200.824,426.354 199.716,426.984 198.526,426.972C197.353,426.944 196.212,426.581 195.238,425.926C191.99,423.927 190.006,420.377 190.006,416.564C190.006,411.679 193.263,407.352 197.958,406.001C200.285,405.463 202.686,405.32 205.06,405.576C207,405.579 208.925,405.916 210.75,406.572C212.596,407.257 213.984,408.82 214.445,410.734C214.774,412.641 213.658,416.057 211.73,416.225" style="fill:rgb(197,197,197);fill-rule:nonzero;"/>
    </g>
    <g transform="matrix(1,0,0,1,-122.5,-213.206)">
        <path d="M196.616,407.304C197.457,407.164 198.272,406.903 199.038,406.529C199.803,406.152 200.362,405.452 200.562,404.623C200.722,403.78 200.211,402.943 199.388,402.7C198.777,402.649 198.163,402.751 197.601,402.996C197.033,403.239 196.378,403.175 195.867,402.828C195.368,402.36 195.488,401.515 195.061,400.984C194.594,400.513 193.879,400.381 193.274,400.653C192.682,400.928 192.154,401.323 191.723,401.813L189.439,404.075C188.995,404.515 188.514,405.062 188.627,405.662C188.842,406.298 189.506,406.677 190.163,406.538C190.808,406.389 191.408,406.083 191.908,405.648C191.192,406.094 190.615,406.733 190.243,407.49C189.881,408.25 189.976,409.152 190.489,409.82C191.304,410.76 192.851,410.631 194.038,410.162C195.607,409.541 196.965,408.484 197.953,407.115" style="fill:rgb(197,197,197);fill-rule:nonzero;"/>
    </g>
    <g transform="matrix(1,0,0,1,-122.5,-213.206)">
        <path d="M196.635,404.56C194.623,404.197 192.711,403.411 191.024,402.254C189.571,401.112 188.848,399.436 189.672,398.028C188.824,399.485 188.908,401.312 189.888,402.685C191.14,404.298 192.942,405.397 194.949,405.774C195.372,405.906 195.826,405.904 196.249,405.771C196.626,405.603 196.638,405.109 196.199,405.045" style="fill:rgb(197,197,197);fill-rule:nonzero;"/>
    </g>
    <g transform="matrix(1,0,0,1,-122.5,-213.206)">
        <path d="M222.61,459.12C222.429,459.224 222.257,459.342 222.094,459.474L204.229,453.901L203.224,449.467L196.334,450.108L197.35,458.131C197.518,459.458 198.55,460.523 199.871,460.733L220.898,464.076C221.508,465.558 222.959,466.529 224.561,466.529C226.734,466.529 228.522,464.741 228.522,462.568C228.522,460.395 226.734,458.607 224.561,458.607C223.877,458.607 223.205,458.784 222.61,459.12L222.61,459.12Z" style="fill:rgb(160,97,106);fill-rule:nonzero;"/>
    </g>
    <g transform="matrix(1,0,0,1,-122.5,-213.206)">
        <path d="M195.596,435.037C195.596,435.037 197.21,430.424 202.063,430.844C206.917,431.263 204.275,449.754 204.275,449.754L194.841,462.584L195.596,435.037Z" style="fill:rgb(255,221,29);fill-rule:nonzero;"/>
    </g>
    <g transform="matrix(1,0,0,1,-122.5,-213.206)">
        <path d="M249.504,550.019L246.129,542.798L251.344,540.362L254.719,547.582L254.719,547.582C254.897,547.964 254.989,548.38 254.989,548.801C254.989,550.38 253.69,551.679 252.111,551.679C250.995,551.679 249.976,551.03 249.504,550.019L249.504,550.019Z" style="fill:rgb(96,94,132);fill-rule:nonzero;"/>
    </g>
    <g transform="matrix(1,0,0,1,0,2)">
        <circle cx="115.393" cy="315.819" r="3.542" style="fill:rgb(96,94,132);"/>
    </g>
    <g transform="matrix(1,0,0,1,-122.5,-213.206)">
        <path d="M265.022,551.462L261.648,544.241L266.863,541.804L270.237,549.025C270.415,549.406 270.508,549.822 270.508,550.243C270.508,551.822 269.208,553.122 267.63,553.122C266.514,553.122 265.494,552.473 265.022,551.462L265.022,551.462Z" style="fill:rgb(96,94,132);fill-rule:nonzero;"/>
    </g>
    <g transform="matrix(1,0,0,1,-122.5,-213.206)">
        <path d="M237.903,538.193C238.29,534.084 241.984,531.018 246.095,531.395L269.821,533.601C271.558,533.765 272.854,535.326 272.694,537.063L272.443,539.763C271.973,544.765 267.476,548.497 262.473,548.038L244.701,546.385C240.592,545.999 237.525,542.304 237.903,538.193Z" style="fill:rgb(96,94,132);fill-rule:nonzero;"/>
    </g>
    <g transform="matrix(1,0,0,1,-122.5,-211.206)">
        <path d="M242.302,550.24L243.039,542.304L248.771,542.837L248.033,550.773C247.895,552.245 246.645,553.383 245.168,553.383C243.589,553.383 242.289,552.084 242.289,550.505C242.289,550.417 242.293,550.328 242.302,550.24L242.302,550.24Z" style="fill:rgb(96,94,132);fill-rule:nonzero;"/>
    </g>
    <g transform="matrix(1,0,0,1,-122.5,-212.206)">
        <path d="M258.933,551.787L259.671,543.851L265.402,544.384L264.664,552.32C264.528,553.792 263.277,554.931 261.799,554.931C260.22,554.931 258.921,553.632 258.921,552.053C258.921,551.964 258.925,551.875 258.933,551.787L258.933,551.787Z" style="fill:rgb(96,94,132);fill-rule:nonzero;"/>
    </g>
    <g transform="matrix(1,0,0,1,-122.5,-213.206)">
        <path d="M285.171,522.557C285.838,521.868 286.757,521.479 287.716,521.479C289.659,521.479 291.258,523.078 291.258,525.021C291.258,525.94 290.9,526.825 290.261,527.485L283.792,534.165L278.702,529.236L285.171,522.557Z" style="fill:rgb(96,94,132);fill-rule:nonzero;"/>
    </g>
    <g transform="matrix(1,0,0,1,-122.5,-213.206)">
        <path d="M269.883,535.479L275.066,530.127C277.671,527.443 282.022,527.373 284.713,529.973L286.056,531.273C289.256,534.38 289.339,539.567 286.24,542.775L281.97,547.184C280.995,548.189 279.366,548.215 278.359,547.242L269.941,539.09C268.936,538.115 268.91,536.486 269.883,535.479Z" style="fill:rgb(96,94,132);fill-rule:nonzero;"/>
    </g>
    <g transform="matrix(1,0,0,1,-122.5,-213.206)">
        <path d="M285.941,521.761C286.4,521.286 287.033,521.018 287.693,521.018C289.029,521.018 290.128,522.117 290.128,523.453C290.128,524.087 289.881,524.695 289.44,525.15L282.201,532.625L278.702,529.236L285.941,521.761Z" style="fill:rgb(96,94,132);fill-rule:nonzero;"/>
    </g>
    <g transform="matrix(1,0,0,1,-122.5,-213.206)">
        <path d="M275.392,534.4L284.616,543.333C285.307,544 285.697,544.92 285.697,545.881C285.697,547.824 284.098,549.423 282.155,549.423C281.234,549.423 280.348,549.064 279.687,548.422L270.463,539.489L275.392,534.4Z" style="fill:rgb(96,94,132);fill-rule:nonzero;"/>
    </g>
    <g transform="matrix(-0.355306,0,0,0.355306,621.481,79.8873)">
        <path d="M954.259,543.94L954.239,544.43L952.019,602.8L951.839,607.44C951.189,607.42 950.539,607.41 949.879,607.41C948.599,607.41 947.329,607.45 946.069,607.53C939.892,607.888 933.804,609.172 928.009,611.34C926.509,611.9 925.029,612.52 923.589,613.19C921.325,614.242 919.128,615.43 917.009,616.75C915.629,617.59 914.279,618.49 912.979,619.44C907.445,623.481 902.606,628.396 898.649,633.99C897.262,635.937 895.997,637.968 894.859,640.07L889.569,640.12L853.449,640.52L832.479,640.76L832.469,640.76L817.689,640.92L812.529,640.98L812.159,640.98L807.449,641.03L797.279,641.15L792.549,641.2L785.989,641.27L790.079,602.61L825.749,604.58L832.069,604.93L833.729,605.02L849.289,605.88L852.629,606.06L860.889,606.52L863.659,606.67L877.089,607.41L877.299,605.92L877.699,603.04L877.939,601.31L879.229,592L879.639,589.08L880.219,584.89L880.219,584.86L880.269,584.48L881.609,574.84L882.699,567.05L883.709,559.8L883.709,559.77L885.319,548.12L885.589,546.21L888.769,546.1L901.129,545.7L906.589,545.52L923.759,544.95L947.709,544.16L947.719,544.16L949.699,544.09L950.169,544.07L950.179,544.07L954.259,543.94Z" style="fill-rule:nonzero;"/>
    </g>
    <g transform="matrix(0.695677,-0.718355,0.718355,0.695677,-429.625,157.956)">
        <ellipse cx="284.502" cy="548.065" rx="1.494" ry="0.83" style="fill:rgb(108,99,255);"/>
    </g>
    <g transform="matrix(-1,7.65714e-16,-7.65714e-16,-1,421.145,862.528)">
        <rect x="270.879" y="532.584" width="1.887" height="10.566"/>
    </g>
    <circle id="b5f5a243-7ec0-4aa5-af63-619d7183123d" cx="544.771" cy="222.683" r="11.354"/>
    <g id="bfd056de-2da6-442b-8559-76946851dcfc-2764" transform="matrix(1,0,0,1,-122.5,-215.206)">
        <path d="M639.015,535.036L634.043,535.036L631.677,515.861L639.015,515.861L639.015,535.036Z" style="fill:rgb(254,184,184);fill-rule:nonzero;"/>
    </g>
    <g id="ec5c89d6-7456-480f-bdf1-a0bad78c9eb7-2765" transform="matrix(1,0,0,1,-122.5,-215.206)">
        <path d="M630.493,533.615L640.081,533.615L640.081,539.652L624.456,539.652C624.456,539.652 624.456,539.652 624.456,539.652C624.456,536.34 627.181,533.615 630.493,533.615C630.493,533.615 630.493,533.615 630.493,533.615L630.493,533.615Z" style="fill-rule:nonzero;"/>
    </g>
    <g id="bf4e7101-939b-44b8-bb7c-85bfb7314e2a-2766" transform="matrix(1,0,0,1,-122.5,-215.206)">
        <path d="M631.255,532.261L626.512,530.773L629.996,511.768L636.996,513.965L631.255,532.261Z" style="fill:rgb(254,184,184);fill-rule:nonzero;"/>
    </g>
    <g id="a770a97b-ffd0-44b1-a0da-0204f7c14580-2767" transform="matrix(1,0,0,1,-122.5,-215.206)">
        <path d="M623.546,528.355L632.694,531.226L630.886,536.986L615.979,532.307C616.97,529.147 620.386,527.363 623.546,528.355L623.546,528.355Z" style="fill-rule:nonzero;"/>
    </g>
    <g id="e2b228a4-f91e-4cea-a5f0-96b2874a5489-2768" transform="matrix(1,0,0,1,-122.5,-215.206)">
        <path d="M632.872,524.61C632.655,524.609 632.44,524.57 632.236,524.494L628.578,523.123C627.733,522.803 627.244,521.903 627.436,521.021C628.357,516.88 631.496,502.785 633.214,495.224C635.252,486.256 664.982,484.59 666.247,484.523L666.351,484.518L669.695,488.719C670.904,492.603 670.521,495.633 668.557,497.725C662.826,503.826 645.716,500.04 643.676,499.561L634.582,523.435C634.311,524.141 633.629,524.609 632.873,524.61L632.872,524.61Z" style="fill-rule:nonzero;"/>
    </g>
    <g id="b6a8a1b6-6fdc-4273-8109-8d865cbf60a0-2769" transform="matrix(1,0,0,1,-122.5,-215.206)">
        <path d="M638.144,527.448C637.927,527.448 637.711,527.409 637.508,527.333L633.85,525.961C633.005,525.641 632.517,524.742 632.709,523.859C633.63,519.719 636.768,505.623 638.487,498.063C640.525,489.095 670.255,487.428 671.52,487.362L671.624,487.356L674.967,491.559C676.175,495.443 675.792,498.473 673.829,500.564C668.098,506.664 650.987,502.88 648.947,502.4L639.852,526.273C639.581,526.979 638.9,527.448 638.144,527.448L638.144,527.448Z" style="fill-rule:nonzero;"/>
    </g>
    <g id="abb1d62d-bd50-4509-bcd3-a2fd135bcb14-2770" transform="matrix(1,0,0,1,-122.5,-215.206)">
        <path d="M627.562,469.046C627.697,469.226 627.816,469.416 627.921,469.615L647.921,471.722L650.8,467.774L657.325,471.34L651.671,480.919L627.142,474.665C626.348,475.44 625.281,475.874 624.171,475.874C621.836,475.874 619.915,473.952 619.915,471.617C619.915,469.282 621.836,467.361 624.171,467.361C625.502,467.361 626.759,467.985 627.563,469.046L627.562,469.046Z" style="fill:rgb(254,184,184);fill-rule:nonzero;"/>
    </g>
    <g transform="matrix(-0.355306,0,0,0.355306,585.951,137.625)">
        <circle cx="849.879" cy="507.63" r="12.39" style="fill:rgb(96,94,132);"/>
    </g>
    <g transform="matrix(-0.355306,0,0,0.355306,585.951,137.625)">
        <circle cx="767.317" cy="507.918" r="8.518" style="fill:rgb(96,94,132);"/>
    </g>
    <g id="a3dfd808-464f-4ea5-890a-684a1daa70a0-2771" transform="matrix(1,0,0,1,-122.5,-215.206)">
        <path d="M674.039,493.167C673.75,493.166 673.465,493.097 673.208,492.965C669.208,490.931 661.421,487.41 654.2,486.673C653.7,486.624 653.244,486.366 652.944,485.963C652.639,485.556 652.516,485.04 652.606,484.54C653.258,480.932 654.753,471.747 654.56,464.385C654.444,459.74 657.589,455.599 662.095,454.464C663.417,454.115 664.759,453.85 666.114,453.671C666.533,453.618 666.955,453.591 667.377,453.591C672.893,453.591 677.432,458.13 677.432,463.646C677.432,464.212 677.384,464.777 677.289,465.334C676.001,472.963 674.703,483.619 675.831,491.057C675.937,491.735 675.651,492.419 675.094,492.82C674.788,493.044 674.418,493.166 674.039,493.167Z" style="fill:rgb(255,221,29);fill-rule:nonzero;"/>
    </g>
    <g id="abb0e9b5-7e81-4377-a722-9178486e9ed6-2772" transform="matrix(1,0,0,1,-122.5,-215.206)">
        <path d="M654.93,473.763C654.681,473.762 654.435,473.711 654.206,473.612L648.996,471.357C648.078,470.958 647.65,469.876 648.046,468.957L652.074,459.654C652.803,457.934 654.498,456.812 656.366,456.812C658.925,456.812 661.03,458.917 661.03,461.476C661.03,462.101 660.904,462.721 660.659,463.297L660.633,463.359L656.605,472.662C656.316,473.328 655.657,473.762 654.93,473.763Z" style="fill:rgb(255,221,29);fill-rule:nonzero;"/>
    </g>
    <circle id="f87915bc-fdb7-4958-b776-025778be7e60" cx="544.356" cy="225.341" r="9.96" style="fill:rgb(254,184,184);"/>
    <g id="a24b846e-9bc9-48d1-9d5c-1af3f104e020-2773" transform="matrix(1,0,0,1,-122.5,-215.206)">
        <path d="M656.717,435.652C661.435,438.532 666.754,440.285 672.259,440.773L670.621,438.81C671.813,439.251 673.069,439.501 674.339,439.549C675.629,439.586 676.862,439.009 677.659,437.995C678.31,436.942 678.405,435.633 677.913,434.497C677.414,433.379 676.636,432.407 675.656,431.674C672.128,428.883 667.424,428.043 663.148,429.439C661.703,429.871 660.408,430.701 659.412,431.835C658.468,433 656.65,434.038 657.134,435.457L656.717,435.652Z" style="fill-rule:nonzero;"/>
    </g>
    <g id="ac69e809-b7b0-4e45-b9ac-f485f05eb90a-2775" transform="matrix(1,0,0,1,-122.5,-215.206)">
        <path d="M650.112,490.609C647.666,490.606 645.655,488.592 645.655,486.146C645.655,483.698 647.669,481.684 650.117,481.684C650.706,481.684 651.288,481.8 651.832,482.026C652.015,482.104 652.193,482.194 652.364,482.296L670.506,474.151L671.016,469.231L678.837,469.022L678.785,477.213C678.766,479.157 677.464,480.869 675.597,481.408L654.381,487.446C654.34,487.586 654.292,487.724 654.236,487.859C653.542,489.518 651.912,490.605 650.114,490.608L650.112,490.609Z" style="fill:rgb(254,184,184);fill-rule:nonzero;"/>
    </g>
    <g id="eac1e091-af37-4e66-ab7e-0c0f9620e69d-2776" transform="matrix(1,0,0,1,-122.5,-215.206)">
        <path d="M678.174,473.035C677.952,473.148 677.709,473.214 677.46,473.229L671.794,473.577C670.795,473.637 669.923,472.866 669.86,471.868L669.238,461.749C669.233,461.654 669.23,461.558 669.23,461.463C669.23,458.904 671.335,456.799 673.893,456.799C676.343,456.799 678.397,458.731 678.548,461.176L679.17,471.295C679.214,472.02 678.822,472.706 678.175,473.035L678.174,473.035Z" style="fill:rgb(255,221,29);fill-rule:nonzero;"/>
    </g>
    <path id="aaf37162-85a6-4aeb-ad6c-7b65db57bcd9" d="M544.778,274.101C544.778,273.817 544.548,273.587 544.264,273.587L510.419,273.587C510.135,273.587 509.905,273.817 509.905,274.101L509.905,275.911C509.905,276.195 510.135,276.425 510.419,276.425L544.264,276.425C544.548,276.425 544.778,276.195 544.778,275.911L544.778,274.101Z" style="fill:rgb(96,94,132);"/>
    <g id="b0095227-7b0f-4524-ba57-3fd24cc57e5d-2777" transform="matrix(1,0,0,1,-122.5,-215.206)">
        <path d="M619.4,488.996L619.4,469.126C619.402,467.681 620.59,466.492 622.036,466.49L658.126,466.49C659.571,466.492 660.76,467.681 660.761,469.126L660.761,488.996C660.76,490.441 659.571,491.63 658.126,491.632L622.036,491.632C620.59,491.63 619.402,490.441 619.4,488.996Z" style="fill:rgb(96,94,132);fill-rule:nonzero;"/>
    </g>
    <circle id="b65e7bed-5fd5-4636-a2b0-cb2c766c5a18" cx="518.015" cy="263.856" r="2.433" style="fill:white;"/>
    <path d="M237.471,43.277C235.535,43.582 234.095,45.268 234.098,47.228L234.098,341.822L254.098,341.822L254.098,80.822L694.098,80.822L694.098,342.822L714.098,342.822L714.098,48.155C714.108,46.227 712.718,44.555 710.821,44.212C476.098,3.822 265.572,38.86 237.471,43.277ZM485.314,33.822L462.883,33.822C461.082,33.824 459.6,35.305 459.598,37.106L459.598,59.537C459.6,61.338 461.082,62.82 462.883,62.822L465.348,62.822L465.348,64.322C465.348,65.144 466.026,65.822 466.848,65.822C467.671,65.822 468.348,65.144 468.348,64.322L468.348,62.822L480.598,62.822L480.598,64.322C480.598,65.144 481.276,65.822 482.098,65.822C482.921,65.822 483.598,65.144 483.598,64.322L483.598,62.822L485.314,62.822C487.115,62.82 488.596,61.338 488.598,59.537L488.598,37.106C488.596,35.305 487.115,33.824 485.314,33.822ZM466.848,52.969C468.9,52.969 470.566,54.635 470.566,56.687C470.566,58.739 468.9,60.405 466.848,60.405C464.796,60.405 463.13,58.739 463.13,56.687C463.13,54.635 464.796,52.969 466.848,52.969ZM481.72,52.969C483.772,52.969 485.438,54.635 485.438,56.687C485.438,58.739 483.772,60.405 481.72,60.405C479.668,60.405 478.002,58.739 478.002,56.687C478.002,54.635 479.668,52.969 481.72,52.969ZM485.438,36.183L462.387,36.183L462.387,51.165L485.438,51.165L485.438,36.183Z" style="fill:rgb(96,168,204);"/>
    <g transform="matrix(-0.355306,0,0,0.355306,621.481,79.8873)">
        <path d="M883.311,512.984L879.671,574.84L808.198,574.84C801.998,574.781 795.996,577.051 791.386,581.198C787.248,584.977 784.674,590.174 784.177,595.756L792.331,598.66C792.318,597.723 792.414,596.787 792.618,595.872C793.183,593.417 794.747,588.949 798.952,586.44C800.8,585.39 802.897,584.855 805.023,584.892L886.037,584.892L890.59,520.31L917.871,520.31L917.871,512.984L883.311,512.984Z" style="fill:rgb(96,94,132);fill-rule:nonzero;"/>
    </g>
    <g transform="matrix(-0.355306,0,0,0.355306,621.481,79.8873)">
        <path d="M924.959,607.55C923.449,608.14 921.959,608.8 920.499,609.51C917.942,610.757 915.466,612.167 913.089,613.73C911.709,614.62 910.369,615.567 909.069,616.57C902.749,621.393 897.327,627.289 893.049,633.99L898.649,633.99C902.606,628.396 907.445,623.481 912.979,619.44C914.279,618.49 915.629,617.59 917.009,616.75C919.128,615.43 921.325,614.241 923.589,613.19C925.029,612.52 926.509,611.9 928.009,611.34C933.804,609.172 939.892,607.888 946.069,607.53L946.069,602.87C938.825,603.271 931.694,604.852 924.959,607.55ZM888.189,643.08L893.299,643.08C893.789,642.06 894.309,641.05 894.859,640.07L889.569,640.12C889.079,641.09 888.619,642.08 888.189,643.08ZM954.259,602.91C953.519,602.85 952.769,602.82 952.019,602.8C951.309,602.77 950.599,602.76 949.879,602.76C948.599,602.76 947.329,602.8 946.069,602.87C938.825,603.271 931.694,604.852 924.959,607.55C923.449,608.14 921.959,608.8 920.499,609.51C917.942,610.757 915.466,612.167 913.089,613.73C911.709,614.62 910.369,615.567 909.069,616.57C900.862,622.834 894.193,630.889 889.569,640.12C889.079,641.09 888.619,642.08 888.189,643.08C886.707,646.427 885.51,649.892 884.609,653.44C884.014,655.739 883.546,658.069 883.209,660.42C882.909,662.48 882.705,664.563 882.599,666.67C882.539,667.82 882.509,668.97 882.509,670.13C882.51,672.683 882.654,675.233 882.939,677.77C884.286,689.578 888.745,700.82 895.859,710.34C896.829,711.64 897.849,712.91 898.909,714.13C911.696,728.945 930.326,737.475 949.896,737.475C986.845,737.475 1017.25,707.07 1017.25,670.122C1017.25,634.817 989.49,605.197 954.259,602.91L954.259,602.91ZM949.879,732.85C932.152,732.859 915.232,725.332 903.369,712.16C902.289,710.98 901.263,709.753 900.289,708.48C892.227,698.112 887.644,685.456 887.199,672.33C887.169,671.6 887.159,670.87 887.159,670.13C887.149,660.767 889.248,651.521 893.299,643.08C893.789,642.06 894.309,641.05 894.859,640.07C895.997,637.968 897.262,635.937 898.649,633.99C902.606,628.396 907.446,623.481 912.979,619.44C914.279,618.49 915.629,617.59 917.009,616.75C919.128,615.43 921.325,614.241 923.589,613.19C925.029,612.52 926.509,611.9 928.009,611.34C933.804,609.172 939.892,607.888 946.069,607.53C947.329,607.45 948.599,607.41 949.879,607.41C950.539,607.41 951.189,607.42 951.839,607.44C952.649,607.47 953.459,607.51 954.259,607.56C986.941,609.843 1012.61,637.367 1012.61,670.129C1012.61,704.537 984.297,732.85 949.889,732.85C949.886,732.85 949.882,732.85 949.879,732.85ZM887.199,672.33C887.169,671.6 887.159,670.87 887.159,670.13C887.149,660.767 889.248,651.521 893.299,643.08L888.189,643.08C886.707,646.427 885.51,649.892 884.609,653.44C884.762,654.089 884.839,654.753 884.839,655.42C884.84,657.217 884.269,658.969 883.209,660.42C882.909,662.48 882.705,664.563 882.599,666.67C882.539,667.82 882.509,668.97 882.509,670.13C882.51,672.683 882.654,675.233 882.939,677.77C884.286,689.578 888.745,700.82 895.859,710.34C897.369,709.78 898.839,709.16 900.289,708.48C892.227,698.112 887.644,685.456 887.199,672.33L887.199,672.33Z" style="fill:rgb(96,94,132);fill-rule:nonzero;"/>
    </g>
    <g transform="matrix(-0.355306,0,0,0.355306,585.951,137.625)">
        <circle cx="811.389" cy="412.155" r="1.053" style="fill-opacity:0.1;"/>
    </g>
    <g transform="matrix(-0.355306,0,0,0.355306,585.951,137.625)">
        <circle cx="807.812" cy="429.601" r="1.053" style="fill-opacity:0.1;"/>
    </g>
    <g transform="matrix(-0.355306,0,0,0.355306,621.481,79.8873)">
        <path d="M838.59,575.905L783.743,593.996C777.103,595.632 771.982,600.977 770.63,607.68L754.06,689.878L780.621,690.293L797.409,621.212L833.655,606.383L805.882,622.456C803.375,624.444 801.435,627.057 800.256,630.032L783.912,691.038L813.206,691.038L829.855,642.253L902.111,601.066L838.59,575.905Z" style="fill-rule:nonzero;"/>
    </g>
    <g transform="matrix(-0.355306,0,0,0.355306,621.481,79.8873)">
        <path d="M893.918,490.088L859.196,494.302C859.196,494.302 838.813,503.444 838.813,508.09C838.813,512.737 830.701,579.335 830.701,579.335C830.701,579.335 823.483,583.789 851.669,591.627C879.854,599.465 884.912,610.286 884.912,610.286L887.057,619.327L919.347,607.983L924.768,530.547L930.954,500.394L910.055,488.731L893.918,490.088Z" style="fill:rgb(255,221,29);fill-rule:nonzero;"/>
    </g>
    <g transform="matrix(-0.355306,0,0,0.355306,585.951,137.625)">
        <circle cx="779.022" cy="296.02" r="24.822" style="fill:rgb(255,183,183);"/>
    </g>
    <g transform="matrix(-0.355306,0,0,0.355306,621.481,79.8873)">
        <path d="M896.036,433.038L896.529,430.379L889.882,429.145C889.882,429.145 880.479,420.523 869.692,426.773C858.905,433.022 854.176,436.271 854.176,436.271L849.2,440.848L852.942,442.918L848.213,446.166L852.202,446.907L848.802,450.402L854.404,461.756C854.404,461.756 855.45,451.636 863.427,453.116C871.404,454.597 882.685,445.688 882.685,445.688L899.913,464.015C899.913,464.015 900.057,455.828 904.714,456.673C904.714,456.673 910.414,437.082 896.036,433.038Z" style="fill-rule:nonzero;"/>
    </g>
    <g transform="matrix(-0.355306,0,0,0.355306,621.481,79.8873)">
        <path d="M902.413,543.061C904.337,540.179 907.581,538.444 911.046,538.444C913.725,538.444 916.304,539.482 918.236,541.338L951.098,524.58L948.967,543.63L918.087,556.623C916.165,558.376 913.656,559.349 911.055,559.349C905.329,559.349 900.618,554.637 900.618,548.912C900.618,546.826 901.243,544.788 902.413,543.061L902.413,543.061Z" style="fill:rgb(255,183,183);fill-rule:nonzero;"/>
    </g>
    <g transform="matrix(-0.355306,0,0,0.355306,585.951,137.625)">
        <path d="M822.893,339.351L830.954,337.894L873.964,357.13L876.891,375.98L851.096,382.76L837.599,365.402L817.844,370.884L806.183,353.334L822.893,339.351Z" style="fill:rgb(255,221,29);fill-rule:nonzero;"/>
    </g>
    <g transform="matrix(-0.00812295,-0.355214,-0.355214,0.00812295,504.408,587.297)">
        <path d="M919.138,539.922C919.138,536.77 916.579,534.21 913.426,534.21L877.196,534.21C874.044,534.21 871.485,536.77 871.485,539.922L871.485,551.048C871.485,554.2 874.044,556.759 877.196,556.759L913.426,556.759C916.579,556.759 919.138,554.2 919.138,551.048L919.138,539.922Z" style="fill:rgb(96,168,204);"/>
    </g>
    <g transform="matrix(-0.355306,0,0,0.355306,585.951,137.625)">
        <circle cx="795.857" cy="373.192" r="3.545" style="fill:white;"/>
    </g>
    <g transform="matrix(-0.355306,0,0,0.355306,621.481,79.8873)">
        <path d="M885.195,548.06C883.936,547.504 882.575,547.218 881.199,547.218C876.647,547.218 872.654,550.355 871.577,554.777L836.543,558.12L848.016,572.362L879.525,567.004C880.09,567.103 880.663,567.152 881.236,567.152C886.698,567.152 891.193,562.658 891.193,557.196C891.193,553.235 888.83,549.635 885.195,548.06Z" style="fill:rgb(255,183,183);fill-rule:nonzero;"/>
    </g>
    <g transform="matrix(-0.355306,0,0,0.355306,585.951,137.625)">
        <path d="M749.578,352.222L747.743,386.324L754.627,388.501L751.669,412.274L733.993,414.945L741.37,353.398L749.578,352.222Z" style="fill:rgb(255,221,29);fill-rule:nonzero;"/>
    </g>
    <g transform="matrix(-0.355306,0,0,0.355306,621.481,79.8873)">
        <path d="M951.529,512.98L950.839,524.71L950.569,529.29L950.569,529.35L949.729,543.5L949.699,544.09L947.889,574.84L876.159,574.84C870.044,574.841 864.142,577.108 859.599,581.2C858.851,581.883 858.15,582.614 857.499,583.39C857.094,583.87 856.713,584.371 856.359,584.89C855.902,585.529 855.481,586.193 855.099,586.88C854.202,588.5 853.513,590.227 853.049,592.02C852.999,592.164 852.958,592.311 852.929,592.46C852.66,593.544 852.476,594.647 852.379,595.76L852.599,604.67L852.629,606.06L852.709,609.54L853.169,628.96L853.449,640.52L853.709,651.41C847.139,651.25 835.849,654.73 829.319,678.05C827.879,683.19 826.719,687.68 825.759,691.59C825.269,693.58 824.826,695.423 824.429,697.12C823.759,700.02 823.209,702.51 822.729,704.64C822.199,707.04 821.759,708.97 821.349,710.52C819.919,715.78 818.779,716.45 815.169,715.09C812.761,714.431 810.297,714 807.809,713.8C800.399,712.92 788.929,712.11 777.879,711.46C777.419,711.44 776.969,711.41 776.509,711.38C760.739,710.46 746.229,709.88 746.229,709.88L746.229,718.96L815.169,725.16C815.169,725.16 822.279,728.35 827.759,717.49C828.509,716.003 829.147,714.462 829.669,712.88C830.019,711.89 830.349,710.82 830.659,709.67C831.149,707.89 831.642,706.1 832.139,704.3C832.589,702.67 833.049,701.03 833.499,699.41C836.469,688.73 839.329,678.7 841.009,672.93C842.303,668.208 845.633,664.299 850.089,662.27C851.627,661.547 853.309,661.182 855.009,661.2L863.149,660.84L862.329,643.08L893.299,643.08C893.789,642.06 894.309,641.05 894.859,640.07C895.997,637.968 897.262,635.937 898.649,633.99L861.979,633.99L861.589,624.16L860.919,607.19L860.889,606.52L860.729,602.49L860.579,598.66C860.557,597.712 860.651,596.765 860.859,595.84C860.939,595.49 861.039,595.09 861.169,594.67C861.683,592.876 862.509,591.187 863.609,589.68C864.387,588.618 865.328,587.686 866.399,586.92C866.653,586.736 866.917,586.566 867.189,586.41C868.746,585.528 870.483,585.008 872.269,584.89C872.595,584.86 872.922,584.85 873.249,584.86L946.069,584.86L946.069,607.53C947.329,607.45 948.599,607.41 949.879,607.41C950.539,607.41 951.189,607.42 951.839,607.44C952.649,607.47 953.459,607.51 954.259,607.56L954.259,584.64L957.139,543.67L958.789,520.28L986.079,520.28L986.089,512.98L951.529,512.98Z" style="fill:rgb(96,94,132);fill-rule:nonzero;"/>
    </g>
    <g transform="matrix(1.01953,0,0,1.01953,-21.7751,-2.27576)">
        <path d="M299.9,292.052C312.082,292.052 321.973,301.942 321.973,314.124C321.973,326.306 312.082,336.196 299.9,336.196C287.718,336.196 277.828,326.306 277.828,314.124C277.828,301.942 287.718,292.052 299.9,292.052ZM299.9,297.57C309.037,297.57 316.454,304.988 316.454,314.124C316.454,323.26 309.037,330.678 299.9,330.678C290.764,330.678 283.346,323.26 283.346,314.124C283.346,304.988 290.764,297.57 299.9,297.57Z" style="fill:rgb(96,94,132);"/>
    </g>
</svg>
